<?xml version="1.0" encoding="UTF-8"?>
<svg width="200px" height="180px" viewBox="0 0 200 180" version="1.1" xmlns="http://www.w3.org/2000/svg" xmlns:xlink="http://www.w3.org/1999/xlink">
    <title>NVC Banking 404</title>
    <defs>
        <linearGradient x1="50%" y1="0%" x2="50%" y2="100%" id="linearGradient-1">
            <stop stop-color="#F8D46E" offset="0%"></stop>
            <stop stop-color="#F4A261" offset="100%"></stop>
        </linearGradient>
    </defs>
    <g stroke="none" stroke-width="1" fill="none" fill-rule="evenodd">
        <g transform="translate(10.000000, 10.000000)">
            <!-- Background -->
            <rect fill="#F0F0F0" x="0" y="0" width="180" height="160" rx="8"></rect>
            
            <!-- Map elements -->
            <circle fill="#E6E6E6" cx="40" cy="50" r="15"></circle>
            <circle fill="#E6E6E6" cx="120" cy="30" r="10"></circle>
            <circle fill="#E6E6E6" cx="140" cy="100" r="20"></circle>
            
            <!-- Map roads -->
            <path d="M20,60 L160,60" stroke="#D0D0D0" stroke-width="4" stroke-linecap="round"></path>
            <path d="M90,20 L90,140" stroke="#D0D0D0" stroke-width="4" stroke-linecap="round"></path>
            <path d="M50,100 L130,30" stroke="#D0D0D0" stroke-width="4" stroke-linecap="round"></path>
            
            <!-- 404 Pin -->
            <g transform="translate(70.000000, 80.000000)">
                <path d="M20,0 C31.0457,0 40,8.9543 40,20 C40,33.25 20,50 20,50 C20,50 0,33.25 0,20 C0,8.9543 8.9543,0 20,0 Z" fill="url(#linearGradient-1)"></path>
                <circle fill="#FFFFFF" cx="20" cy="20" r="10"></circle>
                <text font-family="Arial-BoldMT, Arial" font-size="16" font-weight="bold" fill="#333333">
                    <tspan x="12" y="25">?</tspan>
                </text>
            </g>
            
            <!-- 404 Text -->
            <text font-family="Arial-BoldMT, Arial" font-size="24" font-weight="bold" fill="#333333">
                <tspan x="65" y="155">404</tspan>
            </text>
        </g>
    </g>
</svg>