<?xml version="1.0" encoding="UTF-8" standalone="no"?>
<svg xmlns="http://www.w3.org/2000/svg" viewBox="0 0 800 800" width="800" height="800" style="opacity:0.3">
  <title>Africa Map Background</title>
  <defs>
    <filter id="shadow" x="-20%" y="-20%" width="140%" height="140%">
      <feGaussianBlur in="SourceAlpha" stdDeviation="5"/>
      <feOffset dx="2" dy="2" result="offsetblur"/>
      <feComponentTransfer>
        <feFuncA type="linear" slope="0.7"/>
      </feComponentTransfer>
      <feMerge>
        <feMergeNode/>
        <feMergeNode in="SourceGraphic"/>
      </feMerge>
    </filter>
  </defs>
  
  <!-- Africa continent outline -->
  <path d="M394.2,129.4c-2.8,0.7-5.1,2.1-8.1,1.9c-3.3,2.8-7.9,2.1-11.2,4.7c-2.6,1.9-2.1,5.4-3.3,8.1c-0.7,3.5,3.7,6.3,1.4,9.8
    c-2.8,4.2-7.5,6.5-10.7,10.5c-2.1,1.9-3.5,5.1-2.6,7.9c-0.5,2.6-1.9,5.1-4.7,5.8c-3,1.2-4.9,4.4-4.7,7.5c-0.2,4.2-2.1,7.9-4.7,11.2
    c-2.6,3-0.7,7.5-3.3,10.7c-3,2.6-7.2,3.7-9.8,7c-1.9,2.8-4.9,4.7-8.1,5.8c-2.8,0.7-5.8,1.6-7.9,3.5c-3.5,3-4.4,7.9-7.5,11.2
    c-2.3,2.8-6.3,4.2-7.9,7.5c-1.4,3.3-2.3,7-3.7,10.5c-0.5,2.3-2.8,3.7-3.5,6.1c-0.7,2.6-1.2,5.1-2.1,7.5c-1.4,2.6-4.4,3.5-7,4.7
    c-2.3,0.7-4.9,0.5-7,1.6c-3.3,1.6-4.9,5.1-6.1,8.4c-0.9,2.8-2.3,5.6-2.8,8.6c0.7,2.8,0.2,5.8-0.9,8.4c-1.2,3.3-4.7,4.9-6.5,7.9
    c-1.9,3.3-4.9,5.4-7.5,7.9c-2.1,3.3-5.8,4.9-8.4,7.9c-1.9,2.3-4.4,3.5-6.3,5.8c-3.5,3.5-5.1,8.4-8.8,11.6c-3.3,2.6-5.8,6.3-7.2,10.2
    c-0.9,2.8-2.3,5.6-4.9,7.2c-3.5,1.6-6.3,4.9-7.5,8.6c-1.4,4.2-5.6,6.3-9.3,7.9c-3.5,1.6-5.6,5.1-6.5,8.8c-0.7,3.7-3.5,6.5-6.5,8.8
    c-3.5,2.8-2.8,7.5-3.5,11.6c0.2,2.8-2.3,5.1-4.7,5.8c-2.3,0.5-4.9,0.9-6.5,2.8c-1.4,2.3-3.3,4.4-5.8,5.4c-2.3,0.7-5.1,1.4-6.3,3.5
    c-1.6,3.5-1.9,7.5-3.5,11.2c-0.5,1.9-2.6,3-3.7,4.4c-2.6,3.3-3.3,7.9-6.5,10.7c-0.5,0.9-0.9,2.1-0.9,3.3c0.7,2.8,0.5,5.6,0.5,8.4
    c0.2,3.7-1.6,7-2.3,10.5c-0.2,2.8,0.5,5.8-0.9,8.4c-2.3,3.3-6.1,4.7-9.1,7.2c-2.3,2.8-4.4,5.8-4.7,9.5c-0.2,3.3-2.3,6.5-5.4,7.9
    c-3.3,1.4-5.1,4.7-6.5,7.9c-1.2,2.6-2.3,5.6-4.9,7c-3.3,1.6-6.3,3.3-8.6,6.3c-2.3,3.5-4.2,7.5-6.5,11.2c-0.9,1.9-3,2.3-4.7,3.3
    c-1.9,2.3-1.4,5.6-2.6,8.4c-0.9,2.8-3.7,4.2-6.3,5.1c-2.8,0.5-4.4,3-5.6,5.4c-1.2,2.6-2.8,5.1-4.7,7.2c-1.9,1.9-4.4,2.3-6.8,3.3
    c-3,2.3-4.4,5.8-6.8,8.6c-1.9,1.9-4.7,2.3-7.2,3c-2.3,0.9-4.7,1.6-7,2.8c-2.6,2.1-3.5,5.4-5.1,8.1c-1.9,3.3-3.7,6.5-6.5,9.1
    c-1.4,1.6-2.3,3.5-2.8,5.6c0,3.3,2.3,5.6,4.9,7c2.6,1.4,3.5,4.4,5.1,6.5c0.9,1.6,2.8,2.3,4.4,3c2.8,0.7,5.6,1.6,8.4,2.3
    c3.7,0.9,7,3.3,10.7,4.4c3.3,0.9,6.5,2.1,9.8,3.3c2.6,1.2,5.6,1.6,8.1,3c2.6,1.4,5.4,2.3,8.4,2.8c3.3,0.5,6.5,1.6,9.8,2.8
    c4.4,1.6,9.1,2.6,13.5,4.4c4.9,1.9,10,3.3,15.1,4.9c4.4,1.2,8.8,2.3,12.6,4.7c2.6,1.9,5.8,2.3,8.8,3c3.5,0.7,6.8,1.9,10.2,3
    c3.5,0.7,6.8,1.9,10,3.5c2.8,1.6,5.8,2.8,9.1,3.3c3.5,0.5,6.8,1.9,9.8,3.5c2.3,1.4,5.1,1.9,7.5,3c3,1.6,6.3,2.3,9.5,3.3
    c3.5,1.4,7.5,1.6,10.7,3.5c2.1,1.4,4.4,2.3,6.8,3c3.3,0.5,6.5,1.2,9.5,2.3c3.3,1.2,6.5,2.8,10,3.7c4.7,0.9,9.3,2.8,14,4.2
    c2.8,0.9,5.8,1.4,8.6,2.3c2.6,0.7,5.1,1.4,7.9,1.4c4.2,0,8.6,0.7,12.6,1.9c3.7,1.2,7.5,1.9,11.2,3c3.3,0.9,7,0.9,10.2,2.3
    c2.8,1.2,5.8,1.9,8.8,1.9c3.7-0.2,7.2,1.6,10.7,2.3c3.5,0.5,7,1.6,10.5,2.1c3.3,0.2,6.5,0.9,9.8,1.6c2.8,0.5,5.8,0.5,8.8,0.9
    c3.3,0.7,7,0.7,10.5,0.7c5.1,0,10.2,0,15.4,0.2c3,0.5,6.1,1.6,9.1,1.6c5.8-0.2,11.2,2.1,17,2.3c5.1-0.2,10.2,0.9,15.4,0.5
    c5.4-0.5,10.7,0.5,16.1,0.9c5.1,0.2,10.2-0.7,15.1,0.9c3.5,1.6,7.5,1.6,11.2,1.9c4.7,0.2,9.5,0.5,14,1.4c3.7,0.9,7.5,0.7,11.2,0.7
    c4.4-0.2,8.8,0.2,13.3,0.7c3.7,0.5,7.5,0.7,11.2,0.9c4.7,0.2,9.5,0.5,14.2,0.9c3.7,0.5,7.5,0.2,11.2,0.2c6.5-0.5,13.1-0.9,19.5-0.9
    c5.1,0,10,0.9,15.1,0.7c5.4-0.2,10.7,0.7,16.1,0.7c5.6,0.2,11.2-0.5,16.8-0.7c4.4,0,8.8,0.7,13.3,0.9c3.7,0.2,7.5-0.5,11.2-0.5
    c2.6,0,5.1,0.7,7.5,1.2c2.8,0.7,5.8,0.7,8.6,1.2c3.3,1.2,6.8,1.9,10.2,2.3c5.1,0.5,9.5,2.8,14.5,3.7c2.3,0.5,4.4,1.2,6.3,2.6
    c2.6,2.3,5.6,4.2,7.9,6.8c3,3.5,7,6.3,10.2,9.8c2.3,2.6,4.9,4.9,7.5,7.2c2.3,1.9,3.7,4.7,5.4,7.2c1.2,2.3,3,4.2,4.4,6.3
    c1.6,2.3,3.5,4.4,4.9,7c1.6,3.5,4.4,6.5,6.5,9.8c1.9,2.8,3.5,5.8,5.6,8.4c1.4,1.6,3,3,4.2,4.9c1.4,2.3,2.6,4.7,3.7,7
    c0.9,2.3,2.8,4.2,3.7,6.5c1.2,2.8,3,5.1,4.4,7.9c1.6,3,3.3,5.6,4.4,8.8c0.9,2.8,2.8,5.1,3.7,7.9c1.2,3.3,2.3,6.5,3.7,9.8
    c1.4,2.3,2.6,4.7,3.5,7.2c0.7,2.3,1.6,4.7,2.8,6.8c1.2,2.3,2.3,4.7,3.3,7c0.9,2.6,2.1,5.1,3.3,7.5c0.9,1.9,1.9,4.4,1.4,6.8
    c-0.9,5.4-0.9,11.2-0.7,16.8c0.5,6.5,0.7,13.1,1.2,19.5c0,3-0.5,5.8-0.7,8.8c-0.5,3.7,0.5,7.2,0.9,10.7c0.2,2.6-0.7,4.9-0.9,7.5
    c-0.5,3.7,0.7,7.2,0.9,10.7c0.2,2.6-0.2,5.1-0.7,7.5c-0.7,2.8-0.5,5.6-0.5,8.4c0.2,2.6-0.9,4.9-1.6,7.2c-0.5,2.6-0.5,5.4-0.9,8.1
    c-0.7,2.8-2.3,5.4-4.2,7.5c-1.9,1.6-4.2,2.3-6.3,3.5c-1.9,1.2-3.7,2.6-6.1,2.6c-2.3-0.5-4.7-0.7-7-0.5c-2.1,0.5-4.2,0.5-6.5,0.5
    c-2.6,0.2-5.1,0.9-7.5,1.9c-0.9,0.5-1.6,1.6-1.9,2.6c-0.7,2.3-1.2,4.7-1.9,7c-0.5,1.6-2.1,2.8-3.7,3c-3.5,0.2-7,0.5-10.5,0.7
    c-1.9,0.2-3.5,1.2-5.4,1.4c-2.6,0.2-5.1,0-7.5,0.7c-2.3,0.5-4.7,0.2-7,0.7c-2.3,0.5-4.7,0.2-7,0.5c-2.1,0.2-4.4,0.9-6.3,0
    c-2.1-0.9-4.4-0.9-6.8-0.7c-2.3,0.2-4.9,0.2-7.2-0.7c-2.6-1.2-5.6-1.4-8.4-1.4c-3.5,0.2-7-0.5-10.5-0.7c-3.3-0.7-6.8-0.9-10-1.6
    c-3.5-0.7-7-1.4-10.5-1.6c-1.9,0-3.5,0.7-5.4,0.5c-2.8-0.7-5.4-1.9-8.1-2.8c-2.8-0.9-6.1-0.9-8.8-2.6c-2.1-1.6-4.7-2.1-7.2-2.8
    c-3.3-0.9-6.5-1.9-9.8-3c-3.3-0.9-6.5-2.6-9.8-3.5c-5.6-1.2-10.7-3.7-16.3-5.1c-8.8-1.9-17-5.1-25.6-7.2c-9.5-2.1-18.6-5.1-27.9-7.5
    c-5.1-1.2-10-3-15.1-4.2c-5.4-1.2-10.7-2.3-15.8-4.4c-4.4-1.9-9.1-3.3-13.8-4.4c-5.1-1.2-10-3.3-15.1-4.7c-5.4-1.4-10.7-2.6-15.8-4.7
    c-4.9-2.1-10-3.5-15.1-5.1c-4.7-1.4-9.5-2.6-14-4.2c-5.1-1.9-10.2-3.5-15.4-5.1c-5.8-1.6-11.2-3.7-16.8-5.6c-2.8-0.9-5.8-1.6-8.4-3
    c-2.3-1.2-5.1-1.6-7.5-2.6c-2.3-0.9-4.9-1.4-7-2.6c-1.9-1.2-3.7-2.3-5.8-3.3c-2.6-1.4-5.4-2.3-8.1-3.3c-3-1.2-5.8-2.6-8.8-3.7
    c-3.3-1.2-6.5-2.6-9.5-4.2c-2.6-1.6-5.6-2.6-8.4-3.7c-4.4-1.6-8.6-3.3-12.8-5.4c-2.6-1.6-5.8-2.1-8.4-3.7c-2.1-1.6-4.7-2.3-7-3.5
    c-2.3-1.2-4.7-2.3-7-3.7c-1.9-1.4-4.2-2.3-6.5-3c-3-0.7-5.6-2.3-8.1-3.7c-2.6-1.4-5.1-3-7.9-3.7c-3.3-0.9-6.5-2.8-9.5-4.4
    c-2.8-1.9-6.1-2.8-8.8-4.7c-2.3-1.9-5.1-2.6-7.5-4.2c-2.3-1.6-4.9-3-7.2-4.7c-1.9-1.4-4.2-2.3-6.5-3c-1.9-0.5-3.7-1.4-5.1-2.6
    c-1.4-1.4-3.3-2.3-5.1-3c-1.9-0.7-3.5-2.1-5.4-3c-1.6-0.9-3.3-1.6-4.7-2.8c-1.4-1.2-3-2.3-4.7-3c-1.9-0.7-3.5-1.9-5.1-3
    c-1.4-1.2-2.8-2.3-4.4-3.3c-1.4-0.9-2.8-1.9-4.2-2.8c-1.4-0.9-2.6-1.9-3.7-3c-0.7-0.7-1.2-1.6-1.9-2.3c-0.9-0.7-1.4-1.6-2.1-2.6
    c-1.4-1.9-3.3-3.7-5.4-4.7c-1.9-0.7-3.7-1.9-5.4-3c-2.1-1.4-4.4-2.3-6.8-2.6c-3.3-0.2-6.5-1.2-9.5-2.3c-3.3-1.4-6.8-2.3-10.2-3.3
    c-1.9-0.7-3.7-1.6-5.4-2.6c-1.4-0.9-2.6-1.9-4.2-2.3c-2.1-0.5-4.2-0.9-6.3-1.4c-1.9-0.5-3.7-1.2-5.4-2.3c-1.9-1.2-3.7-2.3-5.8-3
    c-1.9-0.5-3.7-1.4-5.6-1.9c-1.9-0.5-3.5-1.6-5.4-2.1c-1.9-0.5-3.7-1.2-5.6-1.9c-1.9-0.7-3.7-1.4-5.6-2.1c-1.9-0.7-3.7-1.2-5.6-1.9
    c-1.6-0.5-3-1.4-4.7-1.9c-1.9-0.7-3.7-1.2-5.6-1.6c-1.4-0.5-2.8-1.2-4.2-1.6c-1.4-0.5-2.8-0.9-4.4-1.2c-1.4-0.2-2.8-0.9-4.2-1.2
    c-1.2-0.2-2.6-0.2-3.7-0.5c-0.9-0.2-1.9-0.5-2.8-0.7c-2.3-0.5-4.7-0.9-7-1.4c-1.9-0.5-3.7-0.9-5.6-1.6c-1.4-0.7-3-1.2-4.7-1.4
    c-2.6-0.2-5.1-1.2-7.5-1.9c-1.9-0.7-3.7-1.2-5.8-1.2c-1.9-0.2-3.7-0.7-5.4-1.4c-0.9-0.5-1.9-0.9-2.6-1.6c-0.5-0.7-0.5-1.6-0.7-2.3
    c-0.5-2.1-1.2-4.2-1.9-6.3c-0.5-1.9-0.7-3.7-1.2-5.6c-0.5-2.1-1.2-4.2-1.4-6.3c-0.2-1.9-0.2-3.7-0.2-5.6c0-1.9,0.5-3.7,0.9-5.6
    c0.5-1.9,0.7-3.7,1.2-5.6c0.5-1.4,0.5-2.8,0.7-4.2c0.2-1.9,0.7-4.2,2.6-5.4c1.6-1.2,3.5-1.6,5.4-2.1c2.1-0.5,4.2-0.7,6.3-1.2
    c1.9-0.5,3.7-0.9,5.6-1.4c1.9-0.5,3.3-1.4,5.1-1.9c1.9-0.5,3.7-0.7,5.6-1.4c1.6-0.7,3.3-1.2,5.1-1.4c1.9-0.2,3.7-0.7,5.6-1.2
    c0.9-0.2,1.6-0.5,2.3-0.9c0.5-0.5,0.9-1.2,1.2-1.9c0.9-1.9,1.6-3.7,2.3-5.6c0.5-1.6,0.9-3.3,1.2-5.1c0.2-1.6,0.2-3.3,0.2-5.1
    c0-1.9-0.2-3.7-0.5-5.6c-0.2-1.6-0.5-3.3-0.7-5.1c-0.2-1.9-0.7-3.7-1.2-5.6c-0.5-1.9-0.9-3.7-1.4-5.6c-0.2-1.9-0.7-3.7-1.2-5.6
    c-0.2-1.6-0.7-3.3-1.2-4.9c-0.5-1.9-0.9-3.7-1.4-5.6c-0.5-1.6-0.9-3.3-1.4-4.9c-0.5-1.9-0.9-3.7-1.9-5.4c-1.2-1.6-2.8-2.3-4.4-3.3
    c-1.6-1.2-3.7-1.9-5.4-3c-1.4-0.9-2.6-2.1-3.7-3.3c-1.2-1.4-2.3-2.8-3.5-4.2c-1.2-1.4-2.3-2.8-3.5-4.2c-1.6-1.9-3.3-3.7-4.7-5.8
    c-1.4-1.9-2.8-3.7-4.2-5.6c-1.2-1.6-2.1-3.3-3-5.1c-0.7-1.6-1.4-3.3-1.9-5.1c-0.5-1.6-0.9-3.3-1.4-4.9c-0.5-1.6-0.7-3.3-1.2-5.1
    c-0.5-1.6-0.7-3.3-0.9-5.1c-0.2-1.9-0.7-3.7-0.9-5.6c-0.2-1.9-0.7-3.7-1.4-5.4c-1.2-1.6-3-2.8-4.7-3.7c-1.6-0.9-3.3-1.9-5.1-2.6
    c-1.4-0.5-3-0.9-4.4-1.4c-1.6-0.5-3.3-0.7-5.1-0.7c-1.9,0-3.7,0.2-5.6,0.5c-1.9,0.2-3.7,0.7-5.6,1.2c-1.9,0.5-3.7,0.9-5.6,1.6
    c-1.6,0.5-3.3,1.2-4.9,1.9c-1.9,0.9-3.7,1.9-5.4,2.8c-1.6,0.9-3.3,1.9-4.7,3c-1.4,1.2-2.8,2.3-4.2,3.5c-1.4,1.2-2.8,2.3-4.2,3.5
    c-1.4,1.4-2.8,2.6-4.4,3.7c-1.6,1.2-3.3,2.3-4.9,3.5c-1.4,1.2-2.8,2.3-4.4,3.3c-1.6,0.9-3.3,1.6-4.9,2.3c-1.6,0.7-3.3,1.4-5.1,1.9
    c-1.9,0.5-3.7,0.9-5.6,1.2c-1.9,0.2-3.7,0.5-5.6,0.5c-1.9,0-3.7,0-5.6-0.2c-0.5-0.2-1.2-0.5-1.6-0.9c-0.5-0.5-0.5-1.4-0.5-2.1
    c0-0.9-0.2-1.9,0-2.8c0.2-0.9,0.9-1.6,1.4-2.3c0.5-0.7,1.4-1.4,2.1-1.9c1.2-0.7,2.6-1.2,3.7-1.9c0.9-0.9,1.6-1.9,2.8-2.3
    c1.6-0.5,3.3-0.5,4.9-0.7c1.6-0.2,3.3-0.7,4.9-1.2c1.4-0.7,2.8-1.6,4.2-2.6c1.2-1.2,2.6-2.3,3.7-3.7c1.2-1.6,2.3-3.3,3.3-5.1
    c0.9-1.6,1.9-3.3,2.6-5.1c0.7-1.6,1.2-3.3,1.6-5.1c0.5-1.9,0.7-3.7,1.2-5.6c0.5-1.9,0.9-3.7,1.6-5.4c0.9-1.6,2.3-3,3.7-4.2
    c1.4-1.4,3-2.6,4.7-3.5c1.9-1.2,3.7-2.3,5.6-3.5c1.4-0.9,2.6-1.9,3.7-3c0.9-0.9,1.6-1.9,2.3-3c0.9-1.6,1.9-3.3,3-4.7
    c1.2-1.6,2.6-3,4.2-4.2c1.4-1.2,3-2.3,4.7-3c1.4-0.7,2.8-1.4,4.4-1.9c1.6-0.5,3.3-0.9,5.1-1.2c1.9-0.2,3.7-0.5,5.6-0.5
    c1.9,0.2,3.7,0.5,5.4,1.2c1.6,0.7,2.8,1.6,4.2,2.8c1.2,1.2,2.3,2.6,3.3,4.2c0.9,1.4,1.6,3,2.3,4.7c0.5,1.4,0.9,2.8,1.2,4.4
    c0.2,1.6,0.5,3.3,0.5,5.1c0,1.9-0.2,3.7-0.5,5.6c-0.2,1.6-0.5,3.3-0.9,4.9c-0.5,1.6-0.9,3.3-1.4,4.9c-0.5,1.4-0.9,2.8-1.2,4.4
    c-0.2,1.6-0.2,3.3,0,4.9c0,1.6,0,3.3,0,4.9c0,1.6-0.2,3.3-0.2,4.9c0,1.6,0.2,3.3,0.5,4.9c0.2,1.6,0.5,3.3,0.9,4.9
    c0.5,1.6,0.9,3.3,1.4,4.9c0.5,1.6,0.9,3.3,1.4,4.9c0.5,1.6,0.9,3.3,1.2,5.1c0.2,1.6,0.2,3.3,0.2,5.1c0,1.9-0.2,3.7-0.7,5.6
    c-0.5,1.9-1.2,3.7-1.9,5.4c-0.9,1.9-1.9,3.7-3,5.4c-1.2,1.6-2.6,3-3.7,4.7c-1.2,1.6-2.1,3.3-2.8,5.1c-0.5,1.6-0.9,3.3-1.2,5.1
    c-0.5,1.9-0.9,3.7-1.6,5.4c-0.7,1.6-1.6,3.3-2.6,4.7c-1.4,1.9-3,3.7-4.7,5.4c-1.6,1.6-3.5,2.8-5.4,4.2c-1.9,1.4-3.7,2.8-5.8,3.7
    c-1.9,0.9-4.2,1.4-6.3,1.9c-1.9,0.5-3.7,0.7-5.6,0.9c-1.9,0.2-3.7,0.7-5.6,1.2c-1.9,0.5-3.7,1.2-5.6,1.9c-1.9,0.7-3.7,1.4-5.6,2.1
    c-1.9,0.5-3.7,1.4-5.4,2.3c-1.4,0.9-2.8,1.9-4.2,3c-1.4,1.2-2.8,2.3-4.2,3.5c-1.2,1.2-2.3,2.3-3.3,3.7c-0.9,1.4-1.6,3-2.3,4.7
    c-0.5,1.6-0.9,3.3-1.2,5.1c-0.2,1.9-0.5,3.7-0.5,5.6c0,1.9,0.2,3.7,0.2,5.6c0.2,1.9,0.2,3.7,0.5,5.6c0.2,1.9,0.7,3.7,1.2,5.6
    c0.5,1.9,0.9,3.7,1.4,5.6c0.5,1.9,0.9,3.7,1.6,5.4c0.7,1.6,1.4,3.3,2.3,4.9c0.9,1.6,1.9,3.3,3,4.9c1.2,1.6,2.3,3,3.7,4.4
    c1.4,1.4,2.8,2.6,4.4,3.7c1.6,1.2,3.3,2.1,5.1,3c1.6,0.7,3.3,1.4,5.1,1.9c1.9,0.5,3.7,0.9,5.6,1.2c1.9,0.2,3.7,0.5,5.6,0.5
    c1.9,0,3.7,0,5.6-0.2c1.6-0.2,3.3-0.5,4.9-0.7c1.6-0.2,3.3-0.5,4.9-0.7c1.6-0.2,3.3-0.5,4.9-0.5c1.6,0,3.3,0,4.9,0.2
    c1.6,0.2,3.3,0.5,4.9,0.9c1.6,0.5,3.3,0.9,4.9,1.6c1.4,0.7,2.8,1.6,4.2,2.3c1.4,0.9,2.8,1.6,4.2,2.6c1.4,0.9,2.8,1.9,4.2,2.8
    c1.4,1.2,2.8,2.1,4.4,3c1.4,0.7,3,1.4,4.7,1.9c1.6,0.5,3.3,0.9,5.1,1.2c1.9,0.2,3.7,0.5,5.6,0.5c1.9,0,3.7-0.2,5.6-0.5
    c1.9-0.2,3.7-0.7,5.6-1.2c1.9-0.5,3.7-1.2,5.6-1.9c1.9-0.7,3.7-1.6,5.4-2.6c1.9-0.9,3.7-2.1,5.4-3.3c1.6-1.2,3.3-2.3,4.9-3.7
    c1.6-1.4,3.3-2.8,4.7-4.4c1.4-1.6,2.8-3.3,4.2-5.1c1.4-1.9,2.8-3.7,4.4-5.4c1.6-1.6,3.5-2.8,5.4-4.2c1.9-1.4,3.7-2.8,5.8-3.7
    c1.9-0.9,3.7-1.9,5.8-2.6c1.9-0.7,3.7-1.4,5.8-1.6c1.9-0.2,3.7-0.2,5.6-0.2c1.9,0,3.7,0.2,5.6,0.5c1.9,0.2,3.7,0.7,5.6,1.2
    c1.9,0.5,3.7,0.9,5.6,1.6c1.9,0.7,3.7,1.4,5.6,2.1c1.6,0.7,3.3,1.4,4.9,2.3c1.4,0.9,2.8,1.9,4.2,2.8c1.4,0.9,2.6,1.9,3.7,3
    c1.2,1.2,2.3,2.3,3.3,3.7c0.7,1.2,1.2,2.6,1.4,4.2c0.2,1.6,0.2,3.3,0,4.9c-0.2,1.9-0.9,3.7-1.6,5.4c-0.7,1.4-1.6,2.8-2.6,4.2
    c-1.2,1.4-2.3,2.8-3.5,4.2c-1.2,1.4-2.3,2.8-3.5,4.2c-1.2,1.4-2.3,2.8-3.5,4.2c-1.2,1.4-2.3,2.8-3.3,4.4c-0.9,1.6-1.9,3.3-2.6,5.1
    c-0.7,1.9-1.2,3.7-1.9,5.6c-0.5,1.9-0.9,3.7-1.4,5.6c-0.5,1.9-0.9,3.7-1.2,5.6c-0.2,1.9-0.5,3.7-0.7,5.6c-0.2,1.9-0.5,3.7-0.7,5.6
    c-0.2,1.9-0.5,3.7-0.7,5.6c0,0.9,0,1.9,0.5,2.6c0.9,1.2,1.9,2.3,3,3.3c1.2,0.9,2.3,1.9,3.5,2.6c1.4,0.7,2.8,1.4,4.4,1.9
    c1.6,0.5,3.3,0.9,5.1,1.2c1.9,0.2,3.7,0.5,5.6,0.5c1.9,0,3.7,0,5.6-0.2c1.9-0.2,3.7-0.5,5.6-0.9c1.9-0.5,3.7-0.9,5.6-1.6
    c1.9-0.7,3.7-1.4,5.6-2.1c1.9-0.7,3.7-1.6,5.6-2.3c1.9-0.7,3.7-1.4,5.6-1.9c1.9-0.5,3.7-0.9,5.6-1.2c1.9-0.2,3.7-0.5,5.6-0.5
    c1.9,0,3.7,0,5.6,0c1.9,0,3.7,0,5.6,0.2c1.9,0.2,3.7,0.5,5.6,0.9c1.9,0.5,3.7,0.9,5.6,1.6c1.9,0.7,3.7,1.4,5.4,2.3
    c1.6,0.9,3.3,1.9,4.9,3c1.6,1.2,3.3,2.3,4.7,3.5c1.4,1.2,2.6,2.3,3.7,3.7c1.2,1.4,2.3,2.8,3.3,4.2c0.9,1.4,1.9,3,2.6,4.7
    c0.7,1.6,1.4,3.3,1.9,5.1c0.5,1.9,0.9,3.7,1.2,5.6c0.2,1.9,0.5,3.7,0.7,5.6c0.2,1.9,0.2,3.7,0.2,5.6c0,1.9-0.2,3.7-0.5,5.6
    c-0.2,1.9-0.5,3.7-0.9,5.6c-0.5,1.9-0.9,3.7-1.4,5.6c-0.5,1.9-0.9,3.7-1.4,5.6c-0.5,1.9-1.2,3.7-1.9,5.4c-0.9,1.6-1.9,3-3.3,4.2
    c-1.4,1.2-3,2.3-4.7,3c-1.6,0.7-3.3,1.2-5.1,1.4c-1.9,0.2-3.7,0.2-5.6,0.2c-1.9,0-3.7-0.2-5.6-0.5c-1.9-0.2-3.7-0.5-5.6-0.9
    c-1.9-0.5-3.7-0.9-5.6-1.6c-1.9-0.7-3.5-1.4-5.4-2.3c-1.6-0.9-3.3-1.9-4.9-3c-1.6-1.2-3-2.3-4.4-3.7c-1.4-1.4-2.6-2.8-3.7-4.4
    c-1.2-1.6-2.3-3.3-3.3-5.1c-0.9-1.9-1.9-3.7-2.6-5.6c-0.7-1.9-1.2-3.7-1.6-5.6c-0.5-1.9-0.9-3.7-1.2-5.6
    c-0.2-1.9-0.5-3.7-0.7-5.6c-0.2-1.9-0.5-3.7-0.7-5.6c-0.2-1.9-0.7-3.7-1.2-5.6c-0.5-1.9-1.2-3.7-1.9-5.4c-0.9-1.6-1.9-3.3-2.8-4.9
    c-0.9-1.6-1.9-3.3-2.8-4.9c-0.9-1.6-1.9-3.3-2.8-4.9c-0.9-1.6-1.9-3.3-2.8-4.9c-0.9-1.6-1.9-3.3-2.6-5.1c-0.7-1.6-1.4-3.3-1.9-5.1
    c-0.5-1.9-0.9-3.7-1.4-5.6c-0.5-1.9-0.9-3.7-1.4-5.6c-0.5-1.9-0.9-3.7-1.2-5.6c-0.2-1.9-0.5-3.7-0.9-5.6c-0.2-1.9-0.5-3.7-0.7-5.6
    c-0.2-1.9-0.2-3.7-0.2-5.6c0-1.9,0-3.7,0.2-5.6c0.2-1.9,0.5-3.7,0.9-5.6c0.5-1.9,0.9-3.7,1.4-5.6c0.5-1.9,1.2-3.7,1.9-5.4
    c0.7-1.6,1.6-3.3,2.3-4.9c0.9-1.6,1.9-3.3,3-4.7c1.2-1.4,2.3-2.8,3.7-4.2c1.4-1.4,2.8-2.6,4.4-3.5c1.6-1.2,3.3-2.1,5.1-2.8
    c1.6-0.7,3.5-1.2,5.4-1.6c1.9-0.5,3.7-0.7,5.6-0.9c1.9-0.2,3.7-0.5,5.6-0.5c1.9,0,3.7,0.2,5.6,0.2c1.9,0.2,3.7,0.2,5.6,0.5
    c1.9,0.2,3.7,0.5,5.6,0.7c1.9,0.2,3.7,0.2,5.6,0c1.9-0.2,3.7-0.7,5.6-1.2c1.9-0.5,3.7-1.4,5.4-2.1c1.6-0.7,3.3-1.6,4.7-2.6
    c1.4-0.9,2.8-1.9,4.2-2.8c1.6-1.2,3-2.3,4.7-3.5c1.6-1.2,3.3-2.6,5.1-3.5c1.6-0.9,3.5-1.6,5.4-2.1c1.9-0.5,3.7-0.9,5.6-0.9
    c1.9,0,3.7,0,5.6,0.2c1.9,0.2,3.7,0.5,5.6,0.9c1.9,0.5,3.7,0.9,5.6,1.6c1.9,0.7,3.7,1.4,5.6,2.3c1.9,0.9,3.7,1.9,5.4,3
    c1.6,0.9,3.3,1.9,4.9,3c1.6,1.2,3.3,2.3,4.9,3.5c1.6,1.2,3.3,2.6,4.7,3.7c1.4,1.2,2.8,2.3,4.2,3.5c1.4,1.2,2.8,2.3,4.2,3.5
    c1.4,1.2,2.8,2.3,4.2,3.5c1.4,1.2,2.8,2.3,4.4,3.3c1.6,0.9,3.3,1.9,4.9,2.8c1.6,0.9,3.3,1.6,5.1,2.3c1.9,0.7,3.7,1.4,5.6,1.9
    c1.9,0.5,3.7,0.9,5.6,1.2c1.9,0.2,3.7,0.5,5.6,0.5c1.9,0,3.7,0,5.6-0.2c1.9-0.2,3.7-0.5,5.6-0.9c1.9-0.5,3.7-0.9,5.6-1.6
    c1.9-0.7,3.7-1.4,5.6-2.1c1.9-0.7,3.7-1.4,5.6-2.1c1.9-0.7,3.7-1.4,5.6-2.1c1.9-0.7,3.7-1.4,5.6-1.9c1.9-0.5,3.7-0.9,5.6-1.2
    c1.9-0.2,3.7-0.5,5.6-0.5c1.9,0,3.7,0,5.6,0.2c1.9,0.2,3.7,0.5,5.6,0.9c1.9,0.5,3.7,0.9,5.6,1.6c1.9,0.7,3.7,1.4,5.6,2.1
    c1.9,0.7,3.7,1.6,5.4,2.3c1.6,0.9,3.3,1.9,4.9,2.8c1.6,0.9,3,1.9,4.4,3c1.4,1.2,2.8,2.3,4.2,3.5c1.4,1.2,2.8,2.3,4.2,3.5
    c1.4,1.2,2.8,2.3,4.2,3.5c1.4,1.2,2.8,2.3,4.2,3.3c1.4,0.9,2.8,1.9,4.2,2.8c1.4,0.9,2.8,1.9,4.4,2.6c1.6,0.7,3.3,1.4,5.1,1.9
    c1.9,0.5,3.7,0.9,5.6,1.2c1.9,0.2,3.7,0.5,5.6,0.5c1.9,0,3.7,0,5.6-0.2c1.9-0.2,3.7-0.5,5.6-0.9c1.9-0.5,3.7-0.9,5.6-1.6
    c1.9-0.7,3.7-1.4,5.6-2.1c1.9-0.7,3.7-1.2,5.6-1.6c1.9-0.5,3.7-0.9,5.6-1.2c1.9-0.2,3.7-0.5,5.6-0.5c1.9,0,3.7,0,5.6,0c1.9,0,3.7,0,5.6,0c1.9,0,3.7,0,5.6,0
    c1.9,0,3.7,0,5.6,0c1.9,0,3.7,0,5.6,0c1.9,0,3.7,0,5.6,0c1.9,0,3.7,0,5.6,0.2c1.9,0.2,3.7,0.5,5.6,0.9c1.9,0.5,3.7,1.2,5.4,1.9
    c1.6,0.7,3.3,1.6,4.9,2.6c1.6,0.9,3,1.9,4.4,3c1.4,1.2,2.6,2.3,3.7,3.7c0.9,1.4,1.6,3,1.9,4.7c0.2,1.6,0.2,3.3,0,4.9
    c-0.2,1.9-0.7,3.7-1.4,5.4c-0.9,1.6-1.9,3.3-2.8,4.9c-1.2,1.6-2.3,3-3.7,4.2c-1.4,1.2-2.8,2.3-4.4,3.3c-1.6,0.9-3.3,1.6-5.1,2.3
    c-1.9,0.5-3.7,0.9-5.6,1.2c-1.9,0.2-3.7,0.5-5.6,0.5c-1.9,0-3.7,0-5.6-0.2c-1.9-0.2-3.7-0.5-5.6-0.9c-1.9-0.5-3.7-0.9-5.6-1.6
    c-1.9-0.7-3.7-1.4-5.6-2.3c-1.9-0.9-3.7-1.9-5.4-3c-1.6-0.9-3.3-1.9-4.9-3c-1.6-1.2-3.3-2.1-5.1-3c-1.9-0.7-3.7-1.2-5.6-1.6
    c-1.9-0.5-3.7-0.7-5.6-0.9c-1.9-0.2-3.7-0.2-5.6-0.2c-1.9,0-3.7,0-5.6,0c-1.9,0-3.7,0-5.6,0c-1.9,0-3.7,0-5.6,0c-1.9,0-3.7,0-5.6,0.2
    c-1.9,0.2-3.7,0.5-5.6,0.9c-1.9,0.5-3.7,0.9-5.6,1.6c-1.9,0.7-3.7,1.4-5.6,2.3c-1.9,0.9-3.7,1.9-5.4,3c-1.6,0.9-3.3,1.9-4.9,3
    c-1.6,1.2-3.3,2.3-4.9,3.5c-1.6,1.2-3.3,2.6-4.7,3.7c-1.4,1.2-2.8,2.3-4.2,3.5c-1.4,1.2-2.8,2.3-4.2,3.5c-1.4,1.2-2.8,2.3-4.2,3.3
    c-1.4,0.9-2.8,1.9-4.2,2.8c-1.4,0.9-2.8,1.9-4.4,2.6c-1.6,0.7-3.3,1.4-5.1,1.9c-1.9,0.5-3.7,0.9-5.6,1.2c-1.9,0.2-3.7,0.5-5.6,0.5
    c-1.9,0-3.7,0-5.6-0.2c-1.9-0.2-3.7-0.5-5.6-0.9c-1.9-0.5-3.7-0.9-5.6-1.6c-1.9-0.7-3.7-1.4-5.6-2.1c-1.9-0.7-3.7-1.6-5.4-2.3
    c-1.6-0.9-3.3-1.9-4.9-2.8c-1.6-0.9-3-1.9-4.4-3c-1.4-1.2-2.8-2.3-4.2-3.5c-1.4-1.2-2.8-2.3-4.2-3.5c-1.4-1.2-2.8-2.3-4.2-3.5
    c-1.4-1.2-2.8-2.3-4.2-3.3c-1.4-0.9-2.8-1.9-4.2-2.8c-1.4-0.9-2.8-1.9-4.4-2.8c-1.6-0.9-3.3-1.6-5.1-2.3c-1.9-0.7-3.7-1.2-5.6-1.6
    c-1.9-0.5-3.7-0.7-5.6-0.9c-1.9-0.2-3.7-0.2-5.6-0.2c-1.9,0-3.7,0-5.6,0c-1.9,0-3.7,0-5.6,0c-1.9,0-3.7,0-5.6,0c-1.9,0-3.7,0.2-5.6,0.2
    c-1.9,0.2-3.7,0.5-5.6,0.9c-1.9,0.5-3.7,0.9-5.6,1.6c-1.9,0.7-3.7,1.4-5.6,2.1c-1.9,0.7-3.7,1.4-5.6,2.1c-1.9,0.7-3.7,1.4-5.6,2.1
    c-1.9,0.7-3.7,1.4-5.6,1.9c-1.9,0.5-3.7,0.9-5.6,1.2c-1.9,0.2-3.7,0.5-5.6,0.5c-1.9,0-3.7-0.2-5.6-0.5c-1.9-0.2-3.7-0.5-5.6-0.9
    c-1.9-0.5-3.7-0.9-5.6-1.6c-1.9-0.7-3.7-1.4-5.6-2.3c-1.6-0.9-3.3-1.9-4.9-3c-1.6-1.2-3-2.3-4.4-3.7c-1.4-1.4-2.6-2.8-3.7-4.4
    c-1.2-1.6-2.1-3.3-2.8-5.1c-0.7-1.6-1.2-3.5-1.6-5.4c-0.2-1.9-0.5-3.7-0.5-5.6c0-1.9,0.2-3.7,0.5-5.6c0.2-1.9,0.7-3.7,1.2-5.6
    c0.5-1.9,1.2-3.7,1.9-5.4c0.7-1.6,1.6-3.3,2.3-4.9c0.7-1.6,1.6-3,2.3-4.7c0.9-1.6,1.9-3.3,2.8-4.9c0.9-1.6,1.9-3.3,2.6-5.1
    c0.7-1.6,1.4-3.3,1.9-5.1c0.5-1.9,0.9-3.7,1.2-5.6c0.2-1.9,0.5-3.7,0.5-5.6c0-1.9-0.2-3.7-0.5-5.6c-0.2-1.9-0.7-3.7-1.2-5.6
    c-0.5-1.9-0.9-3.7-1.6-5.6c-0.7-1.9-1.2-3.7-1.9-5.4c-0.7-1.6-1.6-3.3-2.3-4.9c-0.7-1.6-1.6-3-2.6-4.4c-0.9-1.4-1.9-2.8-3-4.2
    c-0.9-1.4-1.9-2.8-3-4.2c-1.2-1.4-2.3-2.8-3.5-4.2c-1.2-1.4-2.3-2.6-3.7-3.7c-1.2-1.2-2.6-2.3-4.2-3c-1.4-0.7-3-1.4-4.7-1.9
    c-1.6-0.5-3.3-0.9-5.1-1.2c-1.9-0.2-3.7-0.5-5.6-0.5c-1.9,0-3.7,0-5.6,0.2c-1.9,0.2-3.7,0.5-5.6,0.9c-1.9,0.5-3.7,0.9-5.6,1.6
    c-1.9,0.7-3.7,1.4-5.6,2.1c-1.9,0.7-3.7,1.4-5.6,2.1c-1.9,0.7-3.7,1.4-5.6,1.9c-1.9,0.5-3.7,0.9-5.6,1.2c-1.9,0.2-3.7,0.5-5.6,0.5
    c-1.9,0-3.7,0-5.6-0.2c-1.9-0.2-3.7-0.5-5.6-0.9c-1.9-0.5-3.7-0.9-5.6-1.6c-1.9-0.7-3.7-1.4-5.6-2.3c-1.9-0.9-3.7-1.9-5.4-3
    c-1.6-0.9-3.3-1.9-4.9-3c-1.6-1.2-3.3-2.3-4.9-3.5c-1.6-1.2-3.3-2.6-4.7-3.7c-1.4-1.2-2.8-2.3-4.2-3.5c-1.4-1.2-2.8-2.3-4.2-3.5
    c-1.4-1.2-2.8-2.3-4.2-3.3c-1.4-0.9-2.8-1.9-4.2-2.8c-1.4-0.9-2.8-1.9-4.4-2.6c-1.6-0.7-3.3-1.2-5.1-1.6c-1.9-0.5-3.7-0.7-5.6-0.9
    c-1.9-0.2-3.7-0.2-5.6-0.2c-1.9,0-3.7,0.2-5.6,0.5c-1.9,0.2-3.7,0.7-5.6,1.2c-1.9,0.5-3.7,1.2-5.4,1.9c-1.6,0.7-3.3,1.6-4.9,2.6
    c-1.6,0.9-3,1.9-4.4,3c-1.4,1.2-2.6,2.3-3.7,3.7c-1.2,1.4-2.3,2.8-3.3,4.4c-0.7,1.2-0.9,2.6-0.9,4.2c0,1.9,0.5,3.5,1.4,5.1
    c0.9,1.6,1.9,3,3.3,4.2c1.4,1.2,3,2.1,4.7,2.8c1.6,0.7,3.3,1.2,5.1,1.4c1.9,0.2,3.7,0.2,5.6,0.2c1.9,0,3.7-0.2,5.6-0.5
    c1.9-0.2,3.7-0.7,5.6-1.2c1.9-0.5,3.7-1.2,5.4-1.9c1.6-0.7,3.3-1.6,4.9-2.6c1.6-0.9,3-1.9,4.4-3c1.4-1.2,2.6-2.3,3.7-3.7
    c1.2-1.4,2.3-2.8,3.3-4.4c0.9-1.6,1.9-3.3,2.6-5.1c0.7-1.6,1.4-3.3,1.9-5.1c0.5-1.9,0.9-3.7,1.2-5.6c0.2-1.9,0.5-3.7,0.5-5.6
    c0-1.9,0-3.7-0.2-5.6c-0.2-1.9-0.5-3.7-0.9-5.6c-0.5-1.9-0.9-3.7-1.4-5.6c-0.5-1.9-0.9-3.7-1.4-5.6c-0.5-1.9-0.9-3.7-1.2-5.6
    c-0.2-1.9-0.5-3.7-0.5-5.6c0-1.9,0-3.7,0.2-5.6c0.2-1.9,0.5-3.7,0.9-5.6c0.5-1.9,0.9-3.7,1.4-5.6c0.5-1.9,1.2-3.7,1.9-5.4
    c0.7-1.6,1.6-3.3,2.3-4.9c0.9-1.6,1.9-3.3,3-4.7c1.2-1.4,2.3-2.8,3.7-4.2c1.4-1.4,2.8-2.6,4.4-3.5c1.6-1.2,3.3-2.1,5.1-2.8
    c1.6-0.7,3.5-1.2,5.4-1.6c1.9-0.5,3.7-0.7,5.6-0.9c1.9-0.2,3.7-0.5,5.6-0.5c1.9,0,3.7,0.2,5.6,0.5" fill="none" stroke="#2962FF" stroke-width="1" fill-rule="evenodd" filter="url(#shadow)"/>
  
  <!-- Main cities and regions -->
  <circle cx="185.7" cy="210.5" r="3" fill="#2962FF" />
  <text x="190.7" y="210.5" font-family="Arial" font-size="10" fill="#2962FF">Lagos</text>
  
  <circle cx="300.2" cy="329.4" r="3" fill="#2962FF" />
  <text x="305.2" y="329.4" font-family="Arial" font-size="10" fill="#2962FF">Nairobi</text>
  
  <circle cx="224.6" cy="518.1" r="3" fill="#2962FF" />
  <text x="229.6" y="518.1" font-family="Arial" font-size="10" fill="#2962FF">Johannesburg</text>
  
  <circle cx="196.6" cy="158.7" r="3" fill="#2962FF" />
  <text x="201.6" y="158.7" font-family="Arial" font-size="10" fill="#2962FF">Accra</text>
  
  <circle cx="147.5" cy="130.2" r="3" fill="#2962FF" />
  <text x="152.5" y="130.2" font-family="Arial" font-size="10" fill="#2962FF">Dakar</text>
  
  <!-- African regions -->
  <text x="170" y="110" font-family="Arial" font-size="14" fill="#0D47A1" font-weight="bold">WEST AFRICA</text>
  <text x="290" y="260" font-family="Arial" font-size="14" fill="#0D47A1" font-weight="bold">EAST AFRICA</text>
  <text x="180" y="460" font-family="Arial" font-size="14" fill="#0D47A1" font-weight="bold">SOUTHERN AFRICA</text>
  <text x="200" y="180" font-family="Arial" font-size="14" fill="#0D47A1" font-weight="bold">NORTH AFRICA</text>
  
  <!-- Financial indicators -->
  <path d="M200,200 L230,160 L260,190 L290,150 L320,180" stroke="#4CAF50" stroke-width="2" fill="none" />
  <path d="M400,300 L430,280 L460,290 L490,260 L520,270" stroke="#4CAF50" stroke-width="2" fill="none" />
  <path d="M250,400 L280,380 L310,410 L340,390 L370,420" stroke="#4CAF50" stroke-width="2" fill="none" />
</svg>