<?xml version="1.0" encoding="UTF-8" standalone="no"?>
<svg xmlns="http://www.w3.org/2000/svg" viewBox="0 0 800 800" width="800" height="800" style="opacity:0.7">
  <title>Africa Map Background - Enhanced</title>
  <defs>
    <filter id="shadow" x="-20%" y="-20%" width="140%" height="140%">
      <feGaussianBlur in="SourceAlpha" stdDeviation="3"/>
      <feOffset dx="2" dy="2" result="offsetblur"/>
      <feComponentTransfer>
        <feFuncA type="linear" slope="0.7"/>
      </feComponentTransfer>
      <feMerge>
        <feMergeNode/>
        <feMergeNode in="SourceGraphic"/>
      </feMerge>
    </filter>
  </defs>
  
  <!-- Africa continent outline with better visibility -->
  <path d="M394.2,129.4c-2.8,0.7-5.1,2.1-8.1,1.9c-3.3,2.8-7.9,2.1-11.2,4.7c-2.6,1.9-2.1,5.4-3.3,8.1c-0.7,3.5,3.7,6.3,1.4,9.8
    c-2.8,4.2-7.5,6.5-10.7,10.5c-2.1,1.9-3.5,5.1-2.6,7.9c-0.5,2.6-1.9,5.1-4.7,5.8c-3,1.2-4.9,4.4-4.7,7.5c-0.2,4.2-2.1,7.9-4.7,11.2
    c-0.9,2.6-1.6,5.4-0.7,8.1c1.2,4.7,0.7,9.8-1.4,14c-1.4,4.2-4.7,7.5-6.5,11.4c-1.2,3-0.7,6.3-1.9,9.3c-1.6,3-4.9,4.4-7.7,5.6
    c-2.6,0.9-4.9,2.6-7.5,3.5c-3.5,1.4-7.5,1.6-10.7,3.7c-2.6,1.6-4.7,4.2-7.7,5.1c-4.4,1.2-8.9,1.6-13.3,1.9c-4.2,0.5-7.5,3.5-10.5,6.1
    c-3.7,2.8-7.7,5.1-11.9,7c-3.5,1.6-6.8,3.5-9.8,5.8c-2.6,2.1-4.7,4.7-7.7,6.3c-2.8,1.4-5.8,2.1-8.6,3.5c-2.3,1.2-4.2,3-6.5,4.2
    c-3.5,1.9-7.5,2.3-11.2,3.5c-3.3,1.2-6.8,2.6-9.8,4.4c-3.5,2.1-7,3.7-10.7,5.4c-3.5,1.4-7.2,2.6-9.8,5.4c-2.1,2.3-2.8,5.6-3.7,8.6
    c-0.9,3-0.7,6.3-0.9,9.5c-0.2,3.5-0.9,7-0.9,10.5c0,4.7-0.2,9.3-1.4,13.8c-0.9,2.6-3,4.4-5.1,6.1c-3,2.6-6.3,4.7-9.5,6.8
    c-2.3,1.6-4.4,3.5-7,4.7c-2.8,1.2-5.8,0.9-8.6,1.6c-3.3,0.9-6.5,2.6-9.8,3.3c-3.5,0.7-7.2,0.2-10.7,0.7c-3.3,0.5-5.6,3.3-7.7,5.6
    c-3,3.3-6.8,5.8-10.5,8.1c-3.3,2.1-6.8,3.7-10.5,5.1c-3.3,1.4-6.3,3.5-9.5,5.1c-3.3,1.6-7,3-9.8,5.4c-2.1,1.9-3.5,4.4-4.4,7
    c-0.9,4.2-0.9,8.6-1.2,12.8c-0.2,4.2-0.5,8.6-0.2,12.8c0.2,3.7,1.2,7.5,1.4,11.2c0.2,3.7,0,7.5,0.2,11.2c0.2,3.7,0.7,7.5,1.6,11.2
    c0.7,3-0.2,6.1,0.7,9.1c0.9,3,3,5.6,3.5,8.6c0.5,3,0,6.3,0.9,9.3c1.2,3.5,3.7,6.5,5.6,9.8c1.4,2.6,2.3,5.6,3.7,8.1
    c1.6,2.8,4.2,4.4,6.8,6.1c2.6,1.6,4.9,3.7,7.9,4.2c3.3,0.5,6.5-0.9,9.8-0.7c3.3,0.2,6.5,0.9,9.8,1.4c3.3,0.5,6.5,0.9,9.8,1.6
    c3.3,0.7,6.5,1.6,9.8,2.3c3.5,0.9,7,2.1,10.5,3.5c3.5,1.4,7,3,10.5,4.4c3.5,1.6,7.2,2.6,10.5,4.4c3,1.6,5.6,3.7,8.6,5.4
    c3.3,1.9,6.8,3.5,9.8,5.8c2.8,2.1,5.4,4.7,8.4,6.5c3.3,1.9,7,2.8,10.5,4.4c3.5,1.6,7,3.5,10.5,5.1c3.5,1.6,7,3.3,10.5,5.1
    c3.5,1.6,7,3.3,10.5,4.9c3.5,1.6,7,3.3,10.5,4.9c3.5,1.4,7,3,10.5,4.7c3.5,1.6,7,3.5,10.5,5.1c3.5,1.6,7,3.3,10.5,4.9
    c3.5,1.6,7,3.3,10.5,4.7c3.3,1.4,6.5,3,9.8,4.4c3.5,1.6,7,3,10.5,4.7c2.8,1.4,5.6,3,8.4,4.2c3.5,1.4,7.2,2.3,10.5,3.5
    c3.5,1.4,7,3,10.5,4.2c3.5,1.2,7,2.3,10.5,3.7c3.5,1.4,7,3,10.7,3.7c3.5,0.7,7.2,0.5,10.7,1.2c3.7,0.9,7.5,1.9,11.2,3
    c3.7,1.2,7.5,2.3,11.2,3.3c3.7,0.9,7.5,1.9,11.2,2.8c3.7,0.9,7.5,1.9,11.2,3c3.7,1.2,7.5,2.3,11.2,3.3c3.7,0.9,7.5,1.9,11.2,2.6
    c3.5,0.7,7.2,1.2,10.7,1.9c3.7,0.9,7.5,1.9,11.2,2.8c3.7,0.9,7.2,1.9,10.9,2.6c3.7,0.7,7.5,1.4,11.2,1.9c3.7,0.5,7.5,0.7,11.2,1.2
    c3.7,0.5,7.5,1.2,11.2,1.4c3.5,0.2,7,0.2,10.5,0.5c3.7,0.2,7.5,0.7,11.2,0.9c3.7,0.2,7.5,0.5,11.2,0.5c3.5,0,7.2-0.5,10.7-0.5
    c3.7,0,7.5,0.5,11.2,0.5c3.7,0,7.5-0.2,11.2-0.2c3.7,0,7.5,0.2,11.2,0.5c3.7,0.2,7.5,0.5,11.2,0.5c3.7,0,7.5-0.5,11.2-0.5
    c3.7,0,7.5,0.2,11.2-0.2c3.5-0.5,7-1.4,10.5-1.9c3.7-0.5,7.5-0.9,11.2-1.4c3.7-0.5,7.5-0.9,11.2-1.2c3.5-0.2,7.2-0.2,10.7-0.5
    c3.7-0.2,7.5-0.7,11.2-0.9c3.7-0.2,7.5-0.5,11.2-0.5c3.7,0,7.5,0.2,11.2,0.5c3.7,0.2,7.5,0.5,11.2,0.5c3.7,0,7.5-0.5,11.2-0.5
    c3.7,0,7.5,0.2,11.2,0.2c3.7,0,7.5-0.2,11.2-0.2c3.7,0,7.5,0.2,11.2,0.2c3.7-0.2,7.2-0.9,10.9-1.4c3.7-0.5,7.5-1.2,11.2-1.4
    c3.5-0.2,7,0,10.5-0.5c3.7-0.5,7.5-1.4,11.2-1.9c3.7-0.5,7.5-0.9,11.2-1.6c3.7-0.7,7.5-1.6,11.2-2.1c3.7-0.5,7.5-0.7,11.2-1.2
    c3.7-0.5,7.5-1.2,11.2-1.9c3.7-0.7,7.5-1.6,11.2-1.9c3.5-0.2,7,0.5,10.5,0c-0.7-3.5-3.3-6.3-4.4-9.8c-0.9-3-1.2-6.3-1.4-9.5
    c-0.2-3.3,0.2-6.5,0-9.8c-0.2-3.3-0.9-6.3-1.4-9.5c-0.5-3.3-0.7-6.5-1.2-9.8c-0.5-3.3-0.9-6.5-1.4-9.8c-0.5-3.3-0.9-6.5-1.4-9.8
    c-0.5-3.3-0.9-6.5-1.4-9.8c-0.5-3.3-0.9-6.5-1.2-9.8c-0.2-3.3-0.5-6.5-0.7-9.8c-0.2-3.3-0.5-6.5-0.7-9.8c-0.2-3.3-0.5-6.5-0.7-9.8"
    fill="none" stroke="#4285F4" stroke-width="3"/>

  <!-- Region boundaries -->
  <path d="M140,215 L240,160 L350,190 L380,280 L330,380 L220,350 L170,320 L140,215" fill="#E8EAF6" opacity="0.3" stroke="#3F51B5" stroke-width="2"/>
  <path d="M330,380 L380,280 L450,310 L520,370 L480,450 L380,420 L330,380" fill="#E3F2FD" opacity="0.3" stroke="#2196F3" stroke-width="2"/>
  <path d="M220,350 L330,380 L380,420 L350,520 L250,500 L220,350" fill="#E0F7FA" opacity="0.3" stroke="#00BCD4" stroke-width="2"/>
  <path d="M380,280 L450,140 L520,180 L550,270 L520,370 L450,310 L380,280" fill="#F1F8E9" opacity="0.3" stroke="#8BC34A" stroke-width="2"/>

  <!-- Regional Labels -->
  <text x="290" y="260" font-family="Arial" font-size="18" fill="#3F51B5" font-weight="bold" filter="url(#shadow)">EAST AFRICA</text>
  <text x="180" y="400" font-family="Arial" font-size="18" fill="#00BCD4" font-weight="bold" filter="url(#shadow)">SOUTHERN AFRICA</text>
  <text x="200" y="180" font-family="Arial" font-size="18" fill="#8BC34A" font-weight="bold" filter="url(#shadow)">NORTH AFRICA</text>
  <text x="450" y="370" font-family="Arial" font-size="18" fill="#2196F3" font-weight="bold" filter="url(#shadow)">CENTRAL AFRICA</text>
  <text x="130" y="300" font-family="Arial" font-size="18" fill="#3F51B5" font-weight="bold" filter="url(#shadow)">WEST AFRICA</text>
  
  <!-- Banking hub markers -->
  <g id="hubs">
    <!-- North Africa hub -->
    <circle cx="210" y="210" r="15" fill="#FFC107" stroke="#FF6F00" stroke-width="2" filter="url(#shadow)"/>
    <path d="M202,210 L218,210 M210,202 L210,218" stroke="#FF6F00" stroke-width="3"/>
    
    <!-- East Africa hub -->
    <circle cx="315" y="315" r="15" fill="#FFC107" stroke="#FF6F00" stroke-width="2" filter="url(#shadow)"/>
    <path d="M315,307 L315,323 M307,315 L323,315" stroke="#FF6F00" stroke-width="3"/>
    
    <!-- Southern Africa hub -->
    <circle cx="270" y="450" r="15" fill="#FFC107" stroke="#FF6F00" stroke-width="2" filter="url(#shadow)"/>
    <path d="M270,442 L270,458 M262,450 L278,450" stroke="#FF6F00" stroke-width="3"/>
    
    <!-- West Africa hub -->
    <circle cx="150" y="280" r="15" fill="#FFC107" stroke="#FF6F00" stroke-width="2" filter="url(#shadow)"/>
    <path d="M150,272 L150,288 M142,280 L158,280" stroke="#FF6F00" stroke-width="3"/>
  </g>

  <!-- Growth & Activity Indicators -->
  <path d="M220,230 L250,210 L280,240 L310,220 L340,250" stroke="#4CAF50" stroke-width="3" fill="none"/>
  <path d="M330,330 L360,310 L390,330 L420,300 L450,320" stroke="#4CAF50" stroke-width="3" fill="none"/>
  <path d="M220,410 L250,390 L280,420 L310,400 L340,430" stroke="#4CAF50" stroke-width="3" fill="none"/>
</svg>