<?xml version="1.0" encoding="UTF-8" standalone="no"?>
<svg width="800" height="400" xmlns="http://www.w3.org/2000/svg">
    <style>
        .box {
            fill: #f0f0f0;
            stroke: #004d99;
            stroke-width: 2;
            rx: 10;
            ry: 10;
        }
        .arrow {
            stroke: #004d99;
            stroke-width: 2;
            fill: none;
            marker-end: url(#arrowhead);
        }
        .label {
            font-family: Verdana, sans-serif;
            font-size: 14px;
            text-anchor: middle;
            dominant-baseline: middle;
        }
        .step-label {
            font-family: Verdana, sans-serif;
            font-size: 12px;
            text-anchor: middle;
            fill: #555;
        }
        .title {
            font-family: Verdana, sans-serif;
            font-size: 20px;
            font-weight: bold;
            text-anchor: middle;
            fill: #004d99;
        }
    </style>
    
    <defs>
        <marker id="arrowhead" markerWidth="10" markerHeight="7" refX="9" refY="3.5" orient="auto">
            <polygon points="0 0, 10 3.5, 0 7" fill="#004d99" />
        </marker>
    </defs>
    
    <text x="400" y="30" class="title">NVC Global EDI Transaction Flow</text>
    
    <!-- Sender Box -->
    <rect x="50" y="100" width="150" height="80" class="box" />
    <text x="125" y="140" class="label">Sender</text>
    <text x="125" y="160" class="step-label">(Financial Institution)</text>
    
    <!-- NVC EDI System Box -->
    <rect x="325" y="100" width="150" height="80" class="box" />
    <text x="400" y="140" class="label">NVC Global</text>
    <text x="400" y="160" class="step-label">EDI System</text>
    
    <!-- Recipient Box -->
    <rect x="600" y="100" width="150" height="80" class="box" />
    <text x="675" y="140" class="label">Recipient</text>
    <text x="675" y="160" class="step-label">(Financial Institution)</text>
    
    <!-- Validation Box -->
    <rect x="325" y="250" width="150" height="80" class="box" />
    <text x="400" y="290" class="label">NVC Validation</text>
    <text x="400" y="310" class="step-label">& Security Layer</text>
    
    <!-- Arrows -->
    <path d="M 200 140 L 325 140" class="arrow" />
    <path d="M 475 140 L 600 140" class="arrow" />
    <path d="M 400 180 L 400 250" class="arrow" />
    <path d="M 325 290 L 125 180" class="arrow" />
    <path d="M 475 290 L 675 180" class="arrow" />
    
    <!-- Step Labels -->
    <text x="262" y="120" class="step-label">1. Send EDI Payment</text>
    <text x="537" y="120" class="step-label">4. Forward to Recipient</text>
    <text x="425" y="215" class="step-label">2. Validate</text>
    <text x="225" y="240" class="step-label">3a. Acknowledgment</text>
    <text x="575" y="240" class="step-label">3b. Acknowledgment</text>
</svg>