<?xml version="1.0" encoding="UTF-8"?>
<svg width="240px" height="180px" viewBox="0 0 240 180" version="1.1" xmlns="http://www.w3.org/2000/svg" xmlns:xlink="http://www.w3.org/1999/xlink">
    <title>Gateway Timeout</title>
    <g id="timeout" stroke="none" stroke-width="1" fill="none" fill-rule="evenodd">
        <circle id="clock-bg" fill="#F5F7FA" cx="120" cy="90" r="80"></circle>
        <path d="M120,25 C155.899,25 185,54.1015625 185,90 C185,125.898438 155.899,155 120,155 C84.1015625,155 55,125.898438 55,90 C55,54.1015625 84.1015625,25 120,25 Z M120,37 C90.7304688,37 67,60.7304688 67,90 C67,119.269531 90.7304688,143 120,143 C149.269531,143 173,119.269531 173,90 C173,60.7304688 149.269531,37 120,37 Z" id="clock-outline" fill="#3F51B5" fill-rule="nonzero"></path>
        <path d="M120,45 C145.957,45 167,66.0430012 167,92 C167,117.956999 145.957,139 120,139 C94.0430012,139 73,117.956999 73,92 C73,66.0430012 94.0430012,45 120,45 Z" id="clock-face" fill="#E3F2FD"></path>
        <line x1="120" y1="92" x2="150" y2="92" id="hour-hand" stroke="#F44336" stroke-width="4" stroke-linecap="round"></line>
        <line x1="120" y1="92" x2="120" y2="62" id="minute-hand" stroke="#2196F3" stroke-width="3" stroke-linecap="round"></line>
        <circle id="center-point" fill="#263238" cx="120" cy="92" r="5"></circle>
        <line x1="120" y1="50" x2="120" y2="55" id="mark-12" stroke="#9E9E9E" stroke-width="2" stroke-linecap="round"></line>
        <line x1="162" y1="92" x2="157" y2="92" id="mark-3" stroke="#9E9E9E" stroke-width="2" stroke-linecap="round"></line>
        <line x1="120" y1="134" x2="120" y2="129" id="mark-6" stroke="#9E9E9E" stroke-width="2" stroke-linecap="round"></line>
        <line x1="78" y1="92" x2="83" y2="92" id="mark-9" stroke="#9E9E9E" stroke-width="2" stroke-linecap="round"></line>
        <g id="error-sign" transform="translate(160.000000, 40.000000)">
            <circle id="error-bg" fill="#F44336" cx="20" cy="20" r="20"></circle>
            <text id="!" font-family="Arial-BoldMT, Arial" font-size="30" font-weight="bold" fill="#FFFFFF">
                <tspan x="15" y="31">!</tspan>
            </text>
        </g>
        <g id="cloud-server" transform="translate(30.000000, 120.000000)">
            <rect id="server" fill="#607D8B" x="10" y="10" width="40" height="30" rx="2"></rect>
            <circle id="indicator" fill="#4CAF50" cx="20" cy="20" r="3"></circle>
            <line x1="30" y1="15" x2="45" y2="15" id="server-line1" stroke="#CFD8DC" stroke-width="2" stroke-linecap="round"></line>
            <line x1="30" y1="25" x2="45" y2="25" id="server-line2" stroke="#CFD8DC" stroke-width="2" stroke-linecap="round"></line>
            <path d="M70,20 C70,14.4775 75.4775,10 82,10 C88.5225,10 94,14.4775 94,20 C94,25.5225 88.5225,30 82,30 L70,30 L70,20 Z" id="cloud-1" fill="#90A4AE"></path>
            <path d="M130,25 C130,19.4775 135.4775,15 142,15 C148.5225,15 154,19.4775 154,25 C154,30.5225 148.5225,35 142,35 L130,35 L130,25 Z" id="cloud-2" fill="#90A4AE"></path>
            <line x1="50" y1="25" x2="70" y2="25" id="connection-1" stroke="#F44336" stroke-width="2" stroke-linecap="round" stroke-dasharray="5,3"></line>
            <line x1="94" y1="25" x2="130" y2="25" id="connection-2" stroke="#F44336" stroke-width="2" stroke-linecap="round" stroke-dasharray="5,3"></line>
        </g>
    </g>
</svg>