<?xml version="1.0" encoding="UTF-8"?>
<svg width="24px" height="24px" viewBox="0 0 24 24" xmlns="http://www.w3.org/2000/svg">
  <circle cx="12" cy="12" r="10" fill="#f57c00"/>
  <path d="M17.68 13.84c-.52 2.36-2.69 3.91-5.05 3.91-2.8 0-5.15-2.19-5.15-5.19 0-2.09 1.23-3.87 2.99-4.71l-1.44-1.44c-2.19 1.17-3.71 3.52-3.71 6.16 0 3.86 3.13 7 7 7 3.53 0 6.55-2.61 7-6.11l-1.64-1.86v2.24z" fill="white"/>
  <path d="M12 6.78l-2.8 2.8 2.8 2.81 2.79-2.81-2.79-2.8zm0-2.73l5.53 5.53-5.53 5.52-5.53-5.52L12 4.05z" fill="white"/>
</svg>