<?xml version="1.0" encoding="UTF-8"?>
<svg width="24px" height="24px" viewBox="0 0 512 512" xmlns="http://www.w3.org/2000/svg">
  <g>
    <rect x="0" y="0" width="512" height="512" rx="256" fill="#0052b4"/>
    <g fill="#ffda44">
      <polygon points="256,100.174 264.176,125.683 291.11,125.683 269.467,141.448 277.643,166.957 256,151.191 234.357,166.957 242.533,141.448 220.89,125.683 247.824,125.683"/>
      <polygon points="256,100.174 264.176,125.683 291.11,125.683 269.467,141.448 277.643,166.957 256,151.191 234.357,166.957 242.533,141.448 220.89,125.683 247.824,125.683"/>
      <polygon points="212.261,111.304 216.596,124.791 231.002,124.791 219.203,133.203 223.539,146.689 212.261,138.277 199.982,146.689 204.318,133.203 192.52,124.791 206.926,124.791"/>
      <polygon points="277.53,77.005 282.444,92.508 298.978,92.508 285.267,102.151 290.182,117.654 277.53,108.011 263.878,117.654 268.792,102.151 255.082,92.508 271.615,92.508"/>
      <polygon points="277.53,180.794 282.444,196.298 298.978,196.298 285.267,205.941 290.182,221.444 277.53,211.801 263.878,221.444 268.792,205.941 255.082,196.298 271.615,196.298"/>
      <polygon points="320.792,133.203 326.128,149.776 343.535,149.776 329.704,160.162 335.04,176.735 320.792,166.349 306.544,176.735 311.88,160.162 298.049,149.776 315.456,149.776"/>
      <polygon points="164.946,189.217 170.282,205.79 187.689,205.79 173.858,216.177 179.194,232.75 164.946,222.363 150.698,232.75 156.034,216.177 142.203,205.79 159.61,205.79"/>
      <polygon points="234.357,345.043 242.533,320.61 220.89,304.845 247.824,304.845 256,279.337 264.176,304.845 291.11,304.845 269.467,320.61 277.643,345.043 256,329.277"/>
      <polygon points="200.781,312.882 209.522,289.713 189.093,272.916 215.589,271.766 225.219,245.951 234.849,271.766 261.345,272.916 240.916,289.713 249.657,312.882 225.219,297.787"/>
      <polygon points="329.218,312.882 336.487,290.841 317.873,272.227 343.569,270.186 351.726,243.706 360.244,269.26 385.94,267.219 367.326,285.833 375.483,308.313 351.726,290.53"/>
    </g>
  </g>
</svg>