<?xml version="1.0" encoding="UTF-8"?>
<svg width="24px" height="24px" viewBox="0 0 512 512" xmlns="http://www.w3.org/2000/svg">
  <g>
    <rect x="0" y="0" width="512" height="512" rx="256" fill="#f0f0f0"/>
    <rect x="0" y="0" width="512" height="170.7" fill="#000000"/>
    <rect x="0" y="341.3" width="512" height="170.7" fill="#6da544"/>
    <rect x="0" y="170.7" width="512" height="170.7" fill="#d80027"/>
    <path d="M 255.9,170.7 c -29.5,0 -56.9,16.3 -70.9,42.5 -14.1,26 -12.6,57.8 3.7,82.3 -4.6,-2.7 -8.8,-5.8 -12.7,-9.6 -30.7,-30.7 -30.7,-80.4 0,-111.1 30.6,-30.7 80.4,-30.7 111.1,0 30.6,30.7 30.6,80.4 0,111.1 -3.9,3.9 -8.1,7 -12.7,9.6 16.3,-24.5 17.8,-56.3 3.7,-82.3 -14.1,-26.2 -41.5,-42.5 -71,-42.5 z" fill="#000000"/>
    <path d="M 153.4,236.8 c 0,56.6 45.9,102.5 102.5,102.5 56.6,0 102.5,-45.9 102.5,-102.5 H 153.4 Z" fill="#f0f0f0"/>
    <path d="M 194.1,213.3 H 317.7 c -9.4,-8.1 -21.5,-13 -34.6,-13 H 228.7 c -13.1,0 -25.3,4.9 -34.6,13 z" fill="#000000"/>
    <path d="M 213.3,273.1 c 0,11.8 9.5,21.4 21.3,21.4 11.8,0 21.3,-9.6 21.3,-21.4 l -1.5,-33.2 -39.6,0 z M 256,273.1 c 0,11.8 9.5,21.4 21.3,21.4 11.8,0 21.3,-9.6 21.3,-21.4 l -1.5,-33.2 -39.6,0 z" fill="#000000"/>
  </g>
</svg>