<?xml version="1.0" encoding="UTF-8"?>
<svg width="24px" height="24px" viewBox="0 0 512 512" xmlns="http://www.w3.org/2000/svg">
  <g>
    <rect x="0" y="0" width="512" height="512" rx="256" fill="#f0f0f0"/>
    <g>
      <rect x="0" y="0" width="512" height="39.4" fill="#d80027"/>
      <rect x="0" y="78.8" width="512" height="39.4" fill="#d80027"/>
      <rect x="0" y="157.6" width="512" height="39.4" fill="#d80027"/>
      <rect x="0" y="236.4" width="512" height="39.4" fill="#d80027"/>
      <rect x="0" y="315.2" width="512" height="39.4" fill="#d80027"/>
      <rect x="0" y="394" width="512" height="39.4" fill="#d80027"/>
      <rect x="0" y="472.8" width="512" height="39.4" fill="#d80027"/>
    </g>
    <rect x="0" y="0" width="256" height="275.2" fill="#2e3a8c"/>
    <g fill="#f0f0f0">
      <polygon points="36.6,27.5 41.5,42.4 57.4,42.4 44.6,51.9 49.5,66.7 36.6,57.3 23.7,66.7 28.7,51.9 15.8,42.4 31.7,42.4"/>
      <polygon points="36.6,76 41.5,90.9 57.4,90.9 44.6,100.3 49.5,115.2 36.6,105.8 23.7,115.2 28.7,100.3 15.8,90.9 31.7,90.9"/>
      <polygon points="36.6,124.5 41.5,139.4 57.4,139.4 44.6,148.8 49.5,163.7 36.6,154.3 23.7,163.7 28.7,148.8 15.8,139.4 31.7,139.4"/>
      <polygon points="36.6,173 41.5,187.9 57.4,187.9 44.6,197.3 49.5,212.2 36.6,202.8 23.7,212.2 28.7,197.3 15.8,187.9 31.7,187.9"/>
      <polygon points="36.6,221.5 41.5,236.4 57.4,236.4 44.6,245.8 49.5,260.7 36.6,251.3 23.7,260.7 28.7,245.8 15.8,236.4 31.7,236.4"/>
      <polygon points="80.9,52.2 85.8,67.1 101.7,67.1 88.9,76.5 93.8,91.4 80.9,82 68,91.4 73,76.5 60.1,67.1 76,67.1"/>
      <polygon points="80.9,100.7 85.8,115.6 101.7,115.6 88.9,125 93.8,139.9 80.9,130.5 68,139.9 73,125 60.1,115.6 76,115.6"/>
      <polygon points="80.9,149.2 85.8,164.1 101.7,164.1 88.9,173.5 93.8,188.4 80.9,179 68,188.4 73,173.5 60.1,164.1 76,164.1"/>
      <polygon points="80.9,197.7 85.8,212.6 101.7,212.6 88.9,222 93.8,236.9 80.9,227.5 68,236.9 73,222 60.1,212.6 76,212.6"/>
      <polygon points="125.2,27.5 130.1,42.4 146,42.4 133.2,51.9 138.1,66.7 125.2,57.3 112.3,66.7 117.3,51.9 104.4,42.4 120.3,42.4"/>
      <polygon points="125.2,76 130.1,90.9 146,90.9 133.2,100.3 138.1,115.2 125.2,105.8 112.3,115.2 117.3,100.3 104.4,90.9 120.3,90.9"/>
      <polygon points="125.2,124.5 130.1,139.4 146,139.4 133.2,148.8 138.1,163.7 125.2,154.3 112.3,163.7 117.3,148.8 104.4,139.4 120.3,139.4"/>
      <polygon points="125.2,173 130.1,187.9 146,187.9 133.2,197.3 138.1,212.2 125.2,202.8 112.3,212.2 117.3,197.3 104.4,187.9 120.3,187.9"/>
      <polygon points="125.2,221.5 130.1,236.4 146,236.4 133.2,245.8 138.1,260.7 125.2,251.3 112.3,260.7 117.3,245.8 104.4,236.4 120.3,236.4"/>
      <polygon points="169.5,52.2 174.4,67.1 190.3,67.1 177.5,76.5 182.4,91.4 169.5,82 156.6,91.4 161.6,76.5 148.7,67.1 164.6,67.1"/>
      <polygon points="169.5,100.7 174.4,115.6 190.3,115.6 177.5,125 182.4,139.9 169.5,130.5 156.6,139.9 161.6,125 148.7,115.6 164.6,115.6"/>
      <polygon points="169.5,149.2 174.4,164.1 190.3,164.1 177.5,173.5 182.4,188.4 169.5,179 156.6,188.4 161.6,173.5 148.7,164.1 164.6,164.1"/>
      <polygon points="169.5,197.7 174.4,212.6 190.3,212.6 177.5,222 182.4,236.9 169.5,227.5 156.6,236.9 161.6,222 148.7,212.6 164.6,212.6"/>
      <polygon points="213.8,27.5 218.7,42.4 234.6,42.4 221.8,51.9 226.7,66.7 213.8,57.3 200.9,66.7 205.9,51.9 193,42.4 208.9,42.4"/>
      <polygon points="213.8,76 218.7,90.9 234.6,90.9 221.8,100.3 226.7,115.2 213.8,105.8 200.9,115.2 205.9,100.3 193,90.9 208.9,90.9"/>
      <polygon points="213.8,124.5 218.7,139.4 234.6,139.4 221.8,148.8 226.7,163.7 213.8,154.3 200.9,163.7 205.9,148.8 193,139.4 208.9,139.4"/>
      <polygon points="213.8,173 218.7,187.9 234.6,187.9 221.8,197.3 226.7,212.2 213.8,202.8 200.9,212.2 205.9,197.3 193,187.9 208.9,187.9"/>
      <polygon points="213.8,221.5 218.7,236.4 234.6,236.4 221.8,245.8 226.7,260.7 213.8,251.3 200.9,260.7 205.9,245.8 193,236.4 208.9,236.4"/>
    </g>
  </g>
</svg>